<svg width="33" height="43" viewBox="0 0 33 43" fill="none" xmlns="http://www.w3.org/2000/svg">
<g clip-path="url(#clip0)">
<path d="M31.2699 3.4368C30.4212 14.8444 26.1551 26.6263 19.2234 35.7297C18.6877 35.0843 18.1682 34.4066 17.6583 33.7354C24.2437 24.7211 28.1974 14.0556 29.0788 2.92693L29.1143 2.45579L28.6754 2.2783C24.9218 0.769494 20.9132 -0.00395668 16.8677 1.52202e-05C11.4175 0.071274 6.06834 1.48087 1.29082 4.1048L1.39731 5.43434C6.183 2.77849 11.7238 1.23919 16.8516 1.30696C20.5753 1.32588 24.2662 2.00549 27.7525 3.31417C27.6815 4.10802 27.5911 4.90188 27.4911 5.68927C23.3483 4.21618 18.9449 3.61906 14.5594 3.93568C10.1739 4.2523 5.90188 5.47577 2.01367 7.52868L1.61352 7.74166L1.67483 8.18699C3.28835 20.0528 8.90339 31.6217 16.8903 40.6122L17.7325 39.6602C10.0199 30.9731 4.67599 19.9011 3.01729 8.46129C3.71756 8.10309 4.43394 7.77717 5.16002 7.47705C6.86812 18.4436 11.5718 28.7253 18.7523 37.1883L19.2654 37.795L19.7527 37.1722C27.1471 27.6361 31.5763 16.1373 32.4898 4.1048L31.2699 3.4368ZM16.829 25.8324C13.9238 20.6937 11.813 15.1449 10.5685 9.37454C14.5804 8.53033 18.721 8.50181 22.7441 9.29064C21.6162 15.0708 19.622 20.6476 16.829 25.8324ZM24.0059 9.55848C24.9127 9.77792 25.8098 10.0361 26.6973 10.3394C25.0038 18.3774 21.6491 25.9727 16.8483 32.6382C16.3772 31.9928 15.9211 31.3302 15.4801 30.6504C19.6437 24.2291 22.5379 17.0693 24.0059 9.55848ZM27.3071 6.97686C27.2039 7.67389 27.0845 8.3677 26.9554 9.06152C21.5921 7.26347 15.846 6.92927 10.3104 8.09341C10.1684 7.37055 10.0458 6.64448 9.93282 5.91194C12.2069 5.38664 14.5337 5.12354 16.8677 5.12777C20.4294 5.12588 23.9635 5.75295 27.3071 6.98009V6.97686ZM8.6775 6.24432C9.82673 13.6143 12.3441 20.7044 16.0997 27.149C15.6543 27.9235 15.1918 28.6905 14.7121 29.4499C10.429 22.6072 7.59939 14.9565 6.39921 6.97364C7.14788 6.70257 7.90946 6.46054 8.6775 6.24755V6.24432Z" fill="#F3F3F3"/>
</g>
<defs>
<clipPath id="clip0">
<rect width="33" height="43" fill="white"/>
</clipPath>
</defs>
</svg>
