<svg width="105" height="166" viewBox="0 0 105 166" fill="none" xmlns="http://www.w3.org/2000/svg">
<g clip-path="url(#clip0)">
<path d="M96.9 10.65C94.27 46 81.05 82.51 59.57 110.72C57.91 108.72 56.3 106.62 54.72 104.54C75.127 76.6064 87.3786 43.5559 90.11 9.07005L90.22 7.61006L88.86 7.06004C77.2282 2.38453 64.8063 -0.012261 52.27 4.71646e-05C35.3808 0.220865 18.8047 4.58897 4 12.72L4.33002 16.84C19.16 8.61004 36.33 3.84003 52.22 4.05003C63.7593 4.10867 75.1966 6.21466 86 10.27C85.78 12.73 85.5 15.1901 85.19 17.6301C72.3522 13.0652 58.7068 11.2148 45.1169 12.196C31.5271 13.1771 18.2889 16.9684 6.23999 23.33L5 23.99L5.19 25.37C10.19 62.14 27.59 97.9901 52.34 125.85L54.95 122.9C31.05 95.98 14.49 61.6701 9.35004 26.22C11.52 25.11 13.74 24.1001 15.99 23.1701C21.2831 57.1534 35.859 89.0146 58.11 115.24L59.7 117.12L61.21 115.19C84.1242 85.6394 97.8494 50.0066 100.68 12.72L96.9 10.65ZM52.15 80.05C43.1472 64.1262 36.6065 46.9315 32.75 29.05C45.182 26.434 58.0132 26.3456 70.48 28.7901C66.9848 46.7019 60.8051 63.9833 52.15 80.05ZM74.39 29.62C77.2 30.3 79.98 31.1001 82.73 32.0401C77.4824 56.9483 67.0868 80.4848 52.21 101.14C50.75 99.1401 49.3367 97.0867 47.97 94.9801C60.8724 75.0818 69.8409 52.8948 74.39 29.62ZM84.62 21.62C84.3 23.78 83.93 25.93 83.53 28.08C66.9099 22.5082 49.104 21.4726 31.95 25.08C31.51 22.84 31.13 20.5901 30.78 18.3201C37.8271 16.6922 45.0374 15.8769 52.27 15.8901C63.3072 15.8842 74.2586 17.8274 84.62 21.6301V21.62ZM26.89 19.3501C30.4513 42.1884 38.252 64.1593 49.89 84.1301C48.51 86.5301 47.0767 88.9067 45.59 91.2601C32.3176 70.0557 23.5491 46.3477 19.83 21.6101C22.15 20.7701 24.51 20.0201 26.89 19.3601V19.3501Z" fill="#F3F3F3"/>
<path d="M19.47 166.28C19.06 165.2 18.68 164.13 18.32 163.09C17.96 162.05 17.59 160.98 17.2 159.9H5.89996L3.63 166.28H0C1 163.64 1.86001 161.19 2.70001 158.95C3.54001 156.71 4.35997 154.58 5.15997 152.56C5.95997 150.54 6.77 148.62 7.56 146.78C8.35 144.94 9.17998 143.13 10.04 141.33H13.24C14.1067 143.13 14.9366 144.947 15.73 146.78C16.52 148.62 17.32 150.54 18.12 152.56C18.92 154.58 19.75 156.71 20.59 158.95C21.43 161.19 22.33 163.64 23.29 166.28H19.47ZM16.2 157.02C15.43 154.94 14.67 152.91 13.91 150.96C13.15 149.01 12.37 147.12 11.55 145.32C10.71 147.12 9.91331 149 9.15997 150.96C8.39997 152.91 7.64997 154.96 6.90997 157.02H16.2Z" fill="#F3F3F3"/>
<path d="M47.36 166.28C46.83 165.39 46.23 164.39 45.54 163.28C44.85 162.17 44.12 161.03 43.33 159.84C42.54 158.65 41.72 157.45 40.86 156.22C40 154.99 39.17 153.82 38.33 152.68C37.49 151.54 36.67 150.46 35.88 149.45C35.09 148.44 34.35 147.56 33.68 146.79V166.27H30.26V141.33H33.03C34.1633 142.53 35.37 143.927 36.65 145.52C37.93 147.114 39.2033 148.757 40.47 150.45C41.73 152.15 42.9166 153.817 44.03 155.45C45.1433 157.084 46.0867 158.534 46.86 159.8V141.33H50.28V166.28H47.36Z" fill="#F3F3F3"/>
<path d="M78.5501 141.33C77.8001 142.14 76.9601 143.05 76.0301 144.04C75.1001 145.03 74.1101 146.04 73.0901 147.11C72.0701 148.18 71.0901 149.18 70.0901 150.18C69.0901 151.18 68.0901 152.18 67.2501 152.99C68.3984 153.806 69.4908 154.698 70.5201 155.66C71.6801 156.71 72.8001 157.84 73.9101 159.04C75.0201 160.24 76.0501 161.46 77.0201 162.71C77.9107 163.843 78.7227 165.036 79.4501 166.28H75.3601C74.6003 165.094 73.7687 163.955 72.8701 162.87C71.9262 161.73 70.9249 160.639 69.8701 159.6C68.8701 158.6 67.7601 157.6 66.7001 156.7C65.7129 155.874 64.6704 155.115 63.5801 154.43V166.28H60.0901V141.33H63.5801V152.33C64.4201 151.54 65.3501 150.65 66.3501 149.65C67.3501 148.65 68.3501 147.65 69.3501 146.65C70.3501 145.65 71.2701 144.65 72.1401 143.75C73.0101 142.85 73.7601 142.01 74.3601 141.32L78.5501 141.33Z" fill="#F3F3F3"/>
<path d="M93.06 166.28V156.28C91.4 153.714 89.84 151.18 88.38 148.68C86.92 146.18 85.54 143.734 84.24 141.34H88.36C89.27 143.34 90.29 145.34 91.42 147.34C92.55 149.34 93.71 151.34 94.91 153.19C96.09 151.317 97.2433 149.367 98.37 147.34C99.5 145.34 100.53 143.34 101.46 141.34H105.36C104.067 143.74 102.687 146.18 101.22 148.66C99.7533 151.14 98.2066 153.657 96.58 156.21V166.29L93.06 166.28Z" fill="#F3F3F3"/>
</g>
<defs>
<clipPath id="clip0">
<rect width="105" height="166" fill="white"/>
</clipPath>
</defs>
</svg>
